<svg id="Capa_1" enable-background="new 0 0 510.429 510.429" height="512" viewBox="0 0 510.429 510.429" width="512" xmlns="http://www.w3.org/2000/svg"><path d="m258.93 141.586c25.82-21.733 59.153-34.827 95.543-34.827 81.99 0 148.455 66.466 148.455 148.455s-66.466 148.455-148.455 148.455c-34.742 0-66.697-11.934-91.988-31.927" fill="#5a5a5a"/><path d="m354.474 106.759c-18.042 0-35.331 3.222-51.327 9.116 34.323 36.362 55.37 85.39 55.37 139.339s-21.047 102.977-55.37 139.339c15.996 5.894 33.285 9.116 51.327 9.116 81.99 0 148.455-66.466 148.455-148.455s-66.466-148.455-148.455-148.455z" fill="#9c9c9c"/><path d="m354.474 106.759c-5.05 0-10.039.261-14.959.754 74.925 7.539 133.415 70.789 133.415 147.701s-58.489 140.162-133.415 147.701c4.92.493 9.909.754 14.959.754 81.99 0 148.455-66.466 148.455-148.455s-66.466-148.455-148.455-148.455z" fill="#838383"/><circle cx="155.955" cy="255.214" fill="#fedf30" r="148.455"/><path d="m155.956 106.759c-5.063 0-10.067.256-15 .751 74.945 7.52 133.455 70.778 133.455 147.705s-58.511 140.184-133.455 147.704c4.933.495 9.937.751 15 .751 81.99 0 148.455-66.466 148.455-148.455s-66.466-148.456-148.455-148.456z" fill="#fed402"/><circle cx="220.584" cy="312.826" fill="#e8b800" r="15.577"/><circle cx="92.976" cy="196.815" fill="#e8b800" r="15.577"/><circle cx="438.792" cy="228.237" fill="#838383" r="15.845"/><circle cx="429.295" cy="320.87" fill="#838383" r="21.28"/><path d="m453.26 134.53c-3.203-2.625-7.929-2.157-10.555 1.047s-2.157 7.929 1.047 10.555c32.842 26.913 51.677 66.672 51.677 109.083 0 77.723-63.232 140.955-140.955 140.955-13.917 0-27.607-2.05-40.684-5.986 2.883-3.151 5.69-6.408 8.354-9.719 2.597-3.228 2.085-7.948-1.143-10.545-3.229-2.597-7.949-2.084-10.545 1.143-2.848 3.54-5.867 7.023-8.976 10.353-.989 1.06-1.604 2.331-1.866 3.655-11.867-5.014-23.056-11.665-33.24-19.829 28.125-28.224 45.536-67.129 45.536-110.027 0-42.897-17.412-81.803-45.536-110.027 10.171-8.152 21.344-14.797 33.195-19.808.272 1.294.882 2.533 1.85 3.569 3.107 3.325 6.128 6.806 8.979 10.346 1.481 1.841 3.654 2.797 5.847 2.797 1.65 0 3.313-.542 4.698-1.658 3.227-2.597 3.736-7.319 1.139-10.545-2.645-3.286-5.432-6.518-8.292-9.643 13.078-3.937 26.769-5.987 40.683-5.987 23.141 0 46.084 5.726 66.35 16.56 3.653 1.953 8.198.574 10.15-3.078 1.953-3.653.574-8.198-3.078-10.15-22.435-11.992-47.823-18.331-73.422-18.331-36.389 0-71.402 12.64-99.31 35.711-26.979-22.298-61.557-35.711-99.209-35.711-41.061 0-79.822 15.824-109.145 44.558-2.959 2.899-3.007 7.648-.107 10.606 2.899 2.959 7.649 3.006 10.605.108 26.502-25.97 61.535-40.272 98.646-40.272 2.92 0 5.817.1 8.694.276l-61.548 61.548c-3.059-1.5-6.494-2.345-10.125-2.345-12.725 0-23.077 10.352-23.077 23.077s10.353 23.077 23.077 23.077 23.077-10.352 23.077-23.077c0-3.63-.845-7.066-2.345-10.125l69.732-69.733c29.874 5.929 56.378 21.326 76.244 42.924l-34.334 34.334c-2.929 2.929-2.929 7.678 0 10.607 1.465 1.465 3.384 2.197 5.304 2.197 1.919 0 3.839-.732 5.304-2.197l33.326-33.325c17.351 23.426 27.627 52.393 27.627 83.717 0 41.241-17.804 78.4-46.128 104.199-.44.313-.855.674-1.231 1.092-.006.007-.01.014-.016.02-24.909 22.159-57.697 35.644-93.58 35.644-2.646 0-5.273-.08-7.883-.224l62.387-62.387c3.059 1.5 6.494 2.345 10.125 2.345 12.725 0 23.077-10.352 23.077-23.077s-10.353-23.077-23.077-23.077-23.077 10.352-23.077 23.077c0 3.63.845 7.066 2.345 10.125l-69.846 69.846c-.262.262-.493.544-.708.833-34.427-6.617-64.436-25.796-85.057-52.567l33.475-33.475c2.929-2.929 2.929-7.678 0-10.606-2.93-2.929-7.678-2.929-10.607 0l-31.517 31.518c-13.058-21.37-20.591-46.465-20.591-73.287 0-28.208 8.302-55.427 24.008-78.714 2.316-3.434 1.41-8.096-2.024-10.412-3.436-2.316-8.097-1.41-10.411 2.024-17.385 25.775-26.573 55.894-26.573 87.102 0 85.994 69.961 155.955 155.955 155.955 37.652 0 72.229-13.413 99.208-35.71 27.908 23.073 62.914 35.71 99.311 35.71 85.994 0 155.955-69.961 155.955-155.955 0-46.923-20.837-90.911-57.169-120.684zm-360.283 70.363c-4.454 0-8.077-3.623-8.077-8.077s3.623-8.077 8.077-8.077 8.077 3.623 8.077 8.077-3.623 8.077-8.077 8.077zm127.607 99.856c4.454 0 8.077 3.623 8.077 8.077s-3.623 8.077-8.077 8.077-8.077-3.623-8.077-8.077 3.623-8.077 8.077-8.077z"/><path d="m166.255 70.249c2.239 0 4.505.04 6.733.12.091.003.182.005.272.005 4.019 0 7.346-3.184 7.49-7.232.148-4.139-3.088-7.615-7.228-7.763-2.405-.086-4.852-.13-7.269-.13-4.143 0-7.5 3.358-7.5 7.5s3.359 7.5 7.502 7.5z"/><path d="m211.68 75.866c4.412 1.114 8.835 2.408 13.148 3.847.787.263 1.587.387 2.374.387 3.14 0 6.065-1.987 7.113-5.129 1.312-3.929-.812-8.177-4.741-9.488-4.665-1.556-9.45-2.956-14.223-4.161-4.012-1.013-8.093 1.419-9.107 5.436-1.015 4.016 1.419 8.094 5.436 9.108z"/><path d="m224.934 430.681c-4.31 1.44-8.73 2.737-13.139 3.853-4.016 1.017-6.446 5.096-5.43 9.112.86 3.398 3.913 5.661 7.265 5.661.609 0 1.229-.075 1.847-.231 4.769-1.208 9.55-2.61 14.211-4.167 3.929-1.313 6.049-5.562 4.736-9.491-1.314-3.93-5.563-6.049-9.49-4.737z"/><path d="m355.67 297.083c3.56 0 6.72-2.545 7.372-6.172.871-4.833 1.572-9.764 2.084-14.656.432-4.12-2.559-7.809-6.678-8.24-4.128-.434-7.81 2.559-8.24 6.678-.475 4.526-1.123 9.088-1.928 13.56-.734 4.077 1.975 7.976 6.052 8.711.449.08.897.119 1.338.119z"/><path d="m260.363 95.945c3.909 2.315 7.786 4.809 11.522 7.413 1.307.91 2.802 1.347 4.281 1.347 2.37 0 4.703-1.121 6.16-3.213 2.368-3.398 1.533-8.073-1.865-10.441-4.039-2.814-8.229-5.51-12.454-8.012-3.563-2.11-8.164-.933-10.275 2.631-2.11 3.564-.932 8.164 2.631 10.275z"/><path d="m348.258 222.052c.808 4.466 1.46 9.027 1.937 13.557.406 3.853 3.66 6.715 7.45 6.715.262 0 .527-.014.794-.042 4.12-.434 7.107-4.125 6.674-8.244-.516-4.897-1.221-9.828-2.095-14.656-.737-4.076-4.637-6.784-8.716-6.045-4.075.737-6.782 4.639-6.044 8.715z"/><path d="m344.954 165.385c-1.863-3.699-6.371-5.188-10.072-3.325-3.699 1.863-5.188 6.373-3.324 10.072 2.045 4.061 3.963 8.249 5.699 12.448 1.195 2.89 3.989 4.635 6.934 4.635.955 0 1.927-.184 2.864-.572 3.827-1.583 5.646-5.97 4.063-9.797-1.879-4.541-3.952-9.07-6.164-13.461z"/><path d="m271.965 407.017c-3.732 2.604-7.606 5.099-11.513 7.415-3.563 2.113-4.738 6.713-2.626 10.276 1.401 2.363 3.896 3.676 6.458 3.676 1.301 0 2.618-.339 3.818-1.05 4.223-2.504 8.41-5.201 12.444-8.015 3.397-2.37 4.23-7.045 1.86-10.442-2.368-3.397-7.043-4.231-10.441-1.86z"/><path d="m334.934 348.275c1.081.544 2.231.802 3.364.802 2.744 0 5.389-1.512 6.706-4.131 2.211-4.396 4.284-8.931 6.161-13.477 1.58-3.829-.242-8.214-4.071-9.794-3.827-1.581-8.213.242-9.794 4.071-1.735 4.203-3.651 8.395-5.696 12.459-1.862 3.7-.371 8.208 3.33 10.07z"/><path d="m172.988 440.06c-2.232.08-4.498.12-6.733.12-4.143 0-7.5 3.358-7.5 7.5s3.357 7.5 7.5 7.5c2.413 0 4.858-.044 7.269-.13 4.14-.148 7.376-3.624 7.228-7.763-.149-4.14-3.661-7.379-7.764-7.227z"/><path d="m101.2 284.103 12.832-12.832c2.929-2.929 2.929-7.678 0-10.606-2.93-2.929-7.678-2.929-10.607 0l-12.832 12.832c-2.929 2.929-2.929 7.678 0 10.607 1.465 1.464 3.385 2.197 5.304 2.197s3.838-.733 5.303-2.198z"/><path d="m192.131 248.65 17.851-17.851c2.929-2.929 2.929-7.678-.001-10.607-2.928-2.929-7.677-2.928-10.606 0l-17.851 17.851c-2.929 2.929-2.929 7.678.001 10.607 1.464 1.464 3.384 2.197 5.303 2.197s3.838-.732 5.303-2.197z"/><path d="m438.792 204.893c-12.872 0-23.345 10.472-23.345 23.345s10.473 23.345 23.345 23.345 23.345-10.472 23.345-23.345-10.473-23.345-23.345-23.345zm0 31.689c-4.602 0-8.345-3.743-8.345-8.345s3.743-8.345 8.345-8.345 8.345 3.743 8.345 8.345-3.743 8.345-8.345 8.345z"/><path d="m429.295 292.089c-15.869 0-28.78 12.911-28.78 28.78s12.911 28.78 28.78 28.78 28.78-12.911 28.78-28.78-12.911-28.78-28.78-28.78zm0 42.561c-7.599 0-13.78-6.182-13.78-13.78s6.182-13.78 13.78-13.78 13.78 6.182 13.78 13.78-6.181 13.78-13.78 13.78z"/></svg>